<svg xmlns="http://www.w3.org/2000/svg" data-name="Слой 1" viewBox="0 0 100 125" x="0px" y="0px"><title>star</title><path d="M50.32,18.07l1.36,3.67,6.55,17.62,1.18,3.18,3.39,0.08L81.35,43l4.2,0.1L66.41,57.62l-2.85,2.16,1.12,3.39,5.43,16.5,1.59,4.84-18.39-13-2.89-2-2.89,2L28.64,84.93l7.05-22.32,1.09-3.46L33.84,57,18.38,46l-3-2.15,4.13,0L39,43.6l3.68,0L43.71,40l5.45-18.12,1.16-3.86M49.82,2.37L38.93,38.6,0,38.94,30.93,61.1,19.38,97.63l31-22L81.19,97.33,69.43,61.6,100,38.46,62.93,37.6,49.82,2.37h0Z"/><text x="0" y="115" fill="#000000" font-size="5px" font-weight="bold" font-family="'Helvetica Neue', Helvetica, Arial-Unicode, Arial, Sans-serif">Created by i cons</text><text x="0" y="120" fill="#000000" font-size="5px" font-weight="bold" font-family="'Helvetica Neue', Helvetica, Arial-Unicode, Arial, Sans-serif">from the Noun Project</text></svg>