<svg xmlns="http://www.w3.org/2000/svg" data-name="Layer 1" viewBox="0 0 100 125" x="0px" y="0px"><title>b</title><g data-name="Group"><path data-name="Path" d="M50,8.4a4,4,0,0,0-4,4V54.3L34.3,42.6a4,4,0,0,0-5.7,5.7L47.2,66.7h0l.6.5H48l.5.3h3.1l.5-.3h.2l.6-.5h0L71.4,48.2a4,4,0,0,0-5.7-5.7L54,54.3V12.4A4,4,0,0,0,50,8.4Z"/><path data-name="Path" d="M87.5,57.2a4,4,0,0,0-4,4V79.6a4,4,0,0,1-4,4h-59a4,4,0,0,1-4-4V61.2a4,4,0,0,0-8,0V79.6a12,12,0,0,0,12,12h59a12,12,0,0,0,12-12V61.2A4,4,0,0,0,87.5,57.2Z"/></g><text x="0" y="115" fill="#000000" font-size="5px" font-weight="bold" font-family="'Helvetica Neue', Helvetica, Arial-Unicode, Arial, Sans-serif">Created by Aiden Icons</text><text x="0" y="120" fill="#000000" font-size="5px" font-weight="bold" font-family="'Helvetica Neue', Helvetica, Arial-Unicode, Arial, Sans-serif">from the Noun Project</text></svg>