<svg xmlns="http://www.w3.org/2000/svg" data-name="Layer 2" viewBox="0 0 100 125" x="0px" y="0px"><title>Iconic</title><path d="M85,48.45l0-1.77c0-.69-0.16-1.49-0.26-2.38-0.06-.44-0.08-0.92-0.19-1.41l-0.34-1.52c-0.13-.53-0.22-1.09-0.39-1.65L83.26,38a31.53,31.53,0,0,0-1.51-3.73,20.5,20.5,0,0,0-1-1.93,19.09,19.09,0,0,0-1.18-2l-1.37-2c-0.5-.64-1.06-1.26-1.6-1.91a19.41,19.41,0,0,0-1.79-1.87,20,20,0,0,0-2-1.79c-0.72-.55-1.4-1.17-2.18-1.69L68.26,19.6l-2.57-1.35c-0.87-.45-1.81-0.76-2.73-1.15a24.3,24.3,0,0,0-2.87-.93c-0.49-.13-1-0.3-1.48-0.41L57,15.46l-1.58-.28c-0.52-.08-1-0.09-1.49-0.15l-1.48-.13-0.37,0-0.19,0H50.85a34.43,34.43,0,0,0-12.66,2.25,35.83,35.83,0,0,0-11.11,6.76,36.63,36.63,0,0,0-10.3,15.69l-0.84,2.89c-0.21,1-.38,2-0.56,3l-0.13.75c0,0.25,0,.44-0.07.66l-0.11,1.27L15,49.42V51a35,35,0,0,0,.36,5.29,36.29,36.29,0,0,0,2.46,9,37.24,37.24,0,0,0,3.41,6.39c0.54,0.85,1.1,1.56,1.56,2.19s1,1.22,1.33,1.61l0.86,1-8.74,8.75H40V61.3l-8.34,8.35-0.76-.74-1-1c-0.38-.45-0.84-1-1.29-1.57a28.33,28.33,0,0,1-5.3-11.46,27,27,0,0,1-.57-4.12l0-.54,0-.27c0-.05,0,0.35,0,0.16V49.81l0-1.26,0-1.28c0-.21,0-0.45,0-0.63l0.07-.53,0.25-2.19,0.51-2.35a29.21,29.21,0,0,1,1.65-4.71A30,30,0,0,1,51,19.13l0.7-.06h0.09a0.31,0.31,0,1,0-.06,0h0.6l1.48,0c0.48,0,1,0,1.46,0l1.33,0.16,1.32,0.15c0.44,0.06.89,0.19,1.33,0.28a21.11,21.11,0,0,1,2.63.66c0.85,0.3,1.72.51,2.53,0.87l2.41,1.06L69,23.56c0.75,0.42,1.4.95,2.1,1.41a31.71,31.71,0,0,1,6.74,6.57,17.49,17.49,0,0,1,1.24,1.77,19,19,0,0,1,1.1,1.75,30,30,0,0,1,1.68,3.44l0.66,1.62c0.2,0.53.32,1.06,0.48,1.56l0.43,1.45c0.14,0.46.19,0.92,0.28,1.34,0.15,0.86.32,1.62,0.41,2.29l0.15,1.72,0.12,1.44h0.64Z"/><text x="0" y="115" fill="#000000" font-size="5px" font-weight="bold" font-family="'Helvetica Neue', Helvetica, Arial-Unicode, Arial, Sans-serif">Created by UNiCORN</text><text x="0" y="120" fill="#000000" font-size="5px" font-weight="bold" font-family="'Helvetica Neue', Helvetica, Arial-Unicode, Arial, Sans-serif">from the Noun Project</text></svg>