<svg xmlns="http://www.w3.org/2000/svg" data-name="Layer 1" viewBox="0 0 100 125" x="0px" y="0px"><title>07</title><path d="M22.88,85a4,4,0,0,0,5.8,4.22L50,78,71.31,89.2A4,4,0,0,0,77.12,85L73,61.25,90.29,44.44a4,4,0,0,0-2.22-6.82L64.24,34.16,53.59,12.57h0a4,4,0,0,0-7.17,0L35.76,34.16,11.93,37.62a4,4,0,0,0-2.22,6.82L27,61.25ZM16.8,43l20.85-3a4,4,0,0,0,3-2.19L50,18.85l9.33,18.9a4,4,0,0,0,3,2.19L83.2,43,68.1,57.69A4,4,0,0,0,67,61.23L70.52,82,51.86,72.2a4,4,0,0,0-3.73,0L29.48,82,33,61.23a4,4,0,0,0-1.15-3.54Z"/><text x="0" y="115" fill="#000000" font-size="5px" font-weight="bold" font-family="'Helvetica Neue', Helvetica, Arial-Unicode, Arial, Sans-serif">Created by Kirsh</text><text x="0" y="120" fill="#000000" font-size="5px" font-weight="bold" font-family="'Helvetica Neue', Helvetica, Arial-Unicode, Arial, Sans-serif">from the Noun Project</text></svg>